#Comment line ignore any data following # character 
#Hierarchical Translation and Rotation (.htr) file 
[Header]	
#Header keywords are followed by a single value 
FileType HTR		#Single word string
DataType HTRS		#Translation followed by rotation and scale data
FileVersion 1		#integer
NumSegments 64		#integer
NumFrames 3		#integer
DataFrameRate 30		#integer, data frame rate in this file
EulerRotationOrder ZYX
CalibrationUnits mm
RotationUnits Degrees
GlobalAxisofGravity Y
BoneLengthAxis Y
ScaleFactor 1.00
[SegmentNames&Hierarchy]
#CHILD	PARENT
Pinger_Root GLOBAL
Pelvis Pinger_Root
L_Hip Pelvis
R_Hip Pelvis
Rear_Leg01 Pelvis
Spine1 Pelvis
L_Leg01 L_Hip
L_Leg02 L_Leg01
L_Leg03 L_Leg02
L_Foot L_Leg03
L_Toe1_01 L_Foot
L_Toe2_01 L_Foot
L_Toe3_01 L_Foot
planeAlignerLeft L_Foot
L_Toe1_02 L_Toe1_01
L_Toe1_03 L_Toe1_02
L_Toe2_02 L_Toe2_01
L_Toe2_03 L_Toe2_02
L_Toe3_02 L_Toe3_01
L_Toe3_03 L_Toe3_02
planeLockWeightLeft planeAlignerLeft
R_Leg01 R_Hip
R_Leg02 R_Leg01
R_Leg03 R_Leg02
R_Foot R_Leg03
planeAlignerRight R_Foot
R_Toe1_01 R_Foot
R_Toe2_01 R_Foot
R_Toe3_01 R_Foot
planeLockWeightRight planeAlignerRight
R_Toe1_02 R_Toe1_01
R_Toe1_03 R_Toe1_02
R_Toe2_02 R_Toe2_01
R_Toe2_03 R_Toe2_02
R_Toe3_02 R_Toe3_01
R_Toe3_03 R_Toe3_02
Rear_Leg02 Rear_Leg01
Rear_Leg03 Rear_Leg02
Rear_Leg04 Rear_Leg03
Rear_Foot Rear_Leg04
planeAlignerCenter Rear_Foot
Rear_Toe1_01 Rear_Foot
Rear_Toe2_01 Rear_Foot
Rear_Toe3_01 Rear_Foot
planeLockWeightCenter planeAlignerCenter
Rear_Toe1_02 Rear_Toe1_01
Rear_Toe1_03 Rear_Toe1_02
Rear_Toe2_02 Rear_Toe2_01
Rear_Toe2_03 Rear_Toe2_02
Rear_Toe3_02 Rear_Toe3_01
Rear_Toe3_03 Rear_Toe3_02
Back_Bone Spine1
Head Spine1
Motor_Bone Back_Bone
Ping_Mechanism Back_Bone
BN_LookIK Head
bottomMouth Head
L_Mouth01 Head
L_mouthFront Head
mouthGun Head
R_Mouth01 Head
R_mouthFront Head
TopMouth Head
weapon_bone Head
[BasePosition]
#SegmentName Tx, Ty, Tz, Rx, Ry, Rz, BoneLength
Pinger_Root 0.000000 0.000000 0.000000 -90.000000 0.000000 0.000000 10.000000 
Pelvis 0.000000 0.000000 0.000000 0.000000 0.000000 0.000000 10.000000 
L_Hip 0.000000 0.000000 0.000000 0.000000 0.000000 0.000000 10.000000 
R_Hip 0.000000 0.000000 0.000000 0.000000 0.000000 0.000000 10.000000 
Rear_Leg01 0.000000 0.000000 0.000000 0.000000 0.000000 0.000000 10.000000 
Spine1 0.000000 0.000000 0.000000 0.000000 0.000000 0.000000 10.000000 
L_Leg01 0.000000 0.000000 0.000000 0.000000 0.000000 0.000000 10.000000 
L_Leg02 0.000000 0.000000 0.000000 0.000000 0.000000 0.000000 10.000000 
L_Leg03 0.000000 0.000000 0.000000 0.000000 0.000000 0.000000 10.000000 
L_Foot 0.000000 0.000000 0.000000 0.000000 0.000000 0.000000 10.000000 
L_Toe1_01 0.000000 0.000000 0.000000 0.000000 0.000000 0.000000 10.000000 
L_Toe2_01 0.000000 0.000000 0.000000 0.000000 0.000000 0.000000 10.000000 
L_Toe3_01 0.000000 0.000000 0.000000 0.000000 0.000000 0.000000 10.000000 
planeAlignerLeft 0.000000 0.000000 0.000000 0.000000 0.000000 0.000000 10.000000 
L_Toe1_02 0.000000 0.000000 0.000000 0.000000 0.000000 0.000000 10.000000 
L_Toe1_03 0.000000 0.000000 0.000000 0.000000 0.000000 0.000000 10.000000 
L_Toe2_02 0.000000 0.000000 0.000000 0.000000 0.000000 0.000000 10.000000 
L_Toe2_03 0.000000 0.000000 0.000000 0.000000 0.000000 0.000000 10.000000 
L_Toe3_02 0.000000 0.000000 0.000000 0.000000 0.000000 0.000000 10.000000 
L_Toe3_03 0.000000 0.000000 0.000000 0.000000 0.000000 0.000000 10.000000 
planeLockWeightLeft 0.000000 0.000000 0.000000 0.000000 0.000000 0.000000 10.000000 
R_Leg01 0.000000 0.000000 0.000000 0.000000 0.000000 0.000000 10.000000 
R_Leg02 0.000000 0.000000 0.000000 0.000000 0.000000 0.000000 10.000000 
R_Leg03 0.000000 0.000000 0.000000 0.000000 0.000000 0.000000 10.000000 
R_Foot 0.000000 0.000000 0.000000 0.000000 0.000000 0.000000 10.000000 
planeAlignerRight 0.000000 0.000000 0.000000 0.000000 0.000000 0.000000 10.000000 
R_Toe1_01 0.000000 0.000000 0.000000 0.000000 0.000000 0.000000 10.000000 
R_Toe2_01 0.000000 0.000000 0.000000 0.000000 0.000000 0.000000 10.000000 
R_Toe3_01 0.000000 0.000000 0.000000 0.000000 0.000000 0.000000 10.000000 
planeLockWeightRight 0.000000 0.000000 0.000000 0.000000 0.000000 0.000000 10.000000 
R_Toe1_02 0.000000 0.000000 0.000000 0.000000 0.000000 0.000000 10.000000 
R_Toe1_03 0.000000 0.000000 0.000000 0.000000 0.000000 0.000000 10.000000 
R_Toe2_02 0.000000 0.000000 0.000000 0.000000 0.000000 0.000000 10.000000 
R_Toe2_03 0.000000 0.000000 0.000000 0.000000 0.000000 0.000000 10.000000 
R_Toe3_02 0.000000 0.000000 0.000000 0.000000 0.000000 0.000000 10.000000 
R_Toe3_03 0.000000 0.000000 0.000000 0.000000 0.000000 0.000000 10.000000 
Rear_Leg02 0.000000 0.000000 0.000000 0.000000 0.000000 0.000000 10.000000 
Rear_Leg03 0.000000 0.000000 0.000000 0.000000 0.000000 0.000000 10.000000 
Rear_Leg04 0.000000 0.000000 0.000000 0.000000 0.000000 0.000000 10.000000 
Rear_Foot 0.000000 0.000000 0.000000 0.000000 0.000000 0.000000 10.000000 
planeAlignerCenter 0.000000 0.000000 0.000000 0.000000 0.000000 0.000000 10.000000 
Rear_Toe1_01 0.000000 0.000000 0.000000 0.000000 0.000000 0.000000 10.000000 
Rear_Toe2_01 0.000000 0.000000 0.000000 0.000000 0.000000 0.000000 10.000000 
Rear_Toe3_01 0.000000 0.000000 0.000000 0.000000 0.000000 0.000000 10.000000 
planeLockWeightCenter 0.000000 0.000000 0.000000 0.000000 0.000000 0.000000 10.000000 
Rear_Toe1_02 0.000000 0.000000 0.000000 0.000000 0.000000 0.000000 10.000000 
Rear_Toe1_03 0.000000 0.000000 0.000000 0.000000 0.000000 0.000000 10.000000 
Rear_Toe2_02 0.000000 0.000000 0.000000 0.000000 0.000000 0.000000 10.000000 
Rear_Toe2_03 0.000000 0.000000 0.000000 0.000000 0.000000 0.000000 10.000000 
Rear_Toe3_02 0.000000 0.000000 0.000000 0.000000 0.000000 0.000000 10.000000 
Rear_Toe3_03 0.000000 0.000000 0.000000 0.000000 0.000000 0.000000 10.000000 
Back_Bone 0.000000 0.000000 0.000000 0.000000 0.000000 0.000000 10.000000 
Head 0.000000 0.000000 0.000000 0.000000 0.000000 0.000000 10.000000 
Motor_Bone 0.000000 0.000000 0.000000 0.000000 0.000000 0.000000 10.000000 
Ping_Mechanism 0.000000 0.000000 0.000000 0.000000 0.000000 0.000000 10.000000 
BN_LookIK 0.000000 0.000000 0.000000 0.000000 0.000000 0.000000 10.000000 
bottomMouth 0.000000 0.000000 0.000000 0.000000 0.000000 0.000000 10.000000 
L_Mouth01 0.000000 0.000000 0.000000 0.000000 0.000000 0.000000 10.000000 
L_mouthFront 0.000000 0.000000 0.000000 0.000000 0.000000 0.000000 10.000000 
mouthGun 0.000000 0.000000 0.000000 0.000000 0.000000 0.000000 10.000000 
R_Mouth01 0.000000 0.000000 0.000000 0.000000 0.000000 0.000000 10.000000 
R_mouthFront 0.000000 0.000000 0.000000 0.000000 0.000000 0.000000 10.000000 
TopMouth 0.000000 0.000000 0.000000 0.000000 0.000000 0.000000 10.000000 
weapon_bone 0.000000 0.000000 0.000000 0.000000 0.000000 0.000000 10.000000 
#Beginning of Data. Separated by tabs
#Fr	Tx	Ty	Tz	Rx	Ry	Rz	SF
[Pinger_Root]
4 0.000000 388.888885 0.000000 -0.000075 -0.000000 -0.000020 388.888885
5 0.000000 518.518494 0.000000 -0.000075 -0.000000 -0.000020 518.518494
6 0.000000 648.148254 0.000000 -0.000075 -0.000000 -0.000020 648.148254
[Pelvis]
4 -66.007454 1385.200928 5193.835938 -133.413361 -86.987602 124.621559 5375.785156
5 -132.686539 1389.810547 5223.046875 120.756638 -86.608353 -129.303604 5406.421875
6 -190.064560 1391.231812 5245.705566 99.925262 -82.760094 -108.165932 5430.384766
[L_Hip]
4 5.766392 125.831482 872.656799 -178.250168 -81.786369 87.376007 881.701050
5 5.766392 125.831482 872.656799 -178.250168 -81.786369 87.376007 881.701050
6 5.766392 125.831482 872.656799 -178.250168 -81.786369 87.376007 881.701050
[R_Hip]
4 5.765438 125.836372 -872.654907 -1.748770 81.786041 87.376961 881.699829
5 5.765438 125.836372 -872.654907 -1.748770 81.786041 87.376961 881.699829
6 5.765438 125.836372 -872.654907 -1.748770 81.786041 87.376961 881.699829
[Rear_Leg01]
4 -192.298416 -925.602966 -0.001907 172.939041 10.005594 -149.531357 945.367432
5 -192.298416 -925.602966 -0.001907 174.472626 10.846932 -151.006073 945.367432
6 -192.298416 -925.602966 -0.001907 174.777649 11.246500 -155.871002 945.367432
[Spine1]
4 290.604584 5.007505 0.000477 10.415051 -2.720397 27.216192 290.647736
5 290.604584 5.007505 0.000477 10.445054 -3.040127 32.604481 290.647736
6 290.604584 5.007505 0.000477 10.349089 -3.436139 37.190010 290.647736
[L_Leg01]
4 761.932007 -0.002384 -0.069261 64.427391 -10.063687 -69.975166 761.932068
5 761.932007 -0.002384 -0.069261 66.065918 -7.188231 -71.398697 761.932068
6 761.932007 -0.002384 -0.069261 67.363373 -4.712833 -72.786781 761.932068
[L_Leg02]
4 1441.140503 -0.000954 -0.000715 -1.447956 0.609128 -97.918068 1441.140503
5 1441.140503 -0.000954 -0.000715 -1.410245 0.685261 -98.810783 1441.140503
6 1441.140503 -0.000954 -0.000715 -1.347570 0.749411 -99.149788 1441.140503
[L_Leg03]
4 1686.963989 -0.000715 -0.000954 0.047065 -0.013444 97.122543 1686.963989
5 1686.963989 -0.000715 -0.000954 0.063218 -0.014013 93.190636 1686.963989
6 1686.963989 -0.000715 -0.000954 0.079373 -0.013474 89.258713 1686.963989
[L_Foot]
4 3041.570068 -30.715107 11.297464 -14.592874 16.476032 70.811546 3041.746094
5 3041.570068 -30.715107 11.297464 -13.657638 16.569223 74.394257 3041.746094
6 3041.570068 -30.715107 11.297464 -12.905551 16.677135 77.554924 3041.746094
[L_Toe1_01]
4 -188.216690 -224.732346 -21.137953 89.665649 -3.258687 -165.127487 293.899567
5 -188.216690 -224.732346 -21.137953 89.607658 -3.022542 -164.837952 293.899567
6 -188.216690 -224.732346 -21.137953 89.550888 -2.786105 -164.548706 293.899567
[L_Toe2_01]
4 200.746536 -219.926590 148.838394 -77.527504 -14.312325 -44.525112 332.896027
5 200.746536 -219.926590 148.838394 -77.570984 -14.171258 -44.493946 332.896027
6 200.746536 -219.926590 148.838394 -77.614349 -14.030165 -44.462894 332.896027
[L_Toe3_01]
4 188.832520 -219.859131 -191.078659 -105.214287 14.737993 -45.311977 347.140900
5 188.832520 -219.859131 -191.078659 -105.294487 14.933207 -45.428192 347.140900
6 188.832520 -219.859131 -191.078659 -105.425446 15.315403 -45.597866 347.140900
[planeAlignerLeft]
4 -9.811858 -610.424561 26.549070 0.000000 -90.000000 -90.001900 611.080444
5 -15.877106 -611.707947 22.019316 0.000000 -90.000000 -90.001900 612.309998
6 -21.942354 -612.991333 17.489559 0.000000 -90.000000 -90.001900 613.633240
[L_Toe1_02]
4 413.761139 0.000477 0.000000 0.001412 -22.411362 0.001412 413.761139
5 413.761139 0.000477 0.000000 0.001410 -22.631678 0.001410 413.761139
6 413.761139 0.000477 0.000000 0.001409 -22.851999 0.001409 413.761139
[L_Toe1_03]
4 464.317322 0.000358 -0.000089 0.015118 81.095085 0.015118 464.317322
5 464.317322 0.000358 -0.000089 0.013734 80.195107 0.013734 464.317322
6 464.317322 0.000358 -0.000089 0.012582 79.295036 0.012582 464.317322
[L_Toe2_02]
4 342.235809 -0.000477 0.000238 0.001180 -77.623657 0.001180 342.235809
5 342.235809 -0.000477 0.000238 0.001180 -77.785294 0.001180 342.235809
6 342.235809 -0.000477 0.000238 0.001180 -77.946854 0.001180 342.235809
[L_Toe2_03]
4 420.210846 -0.000715 0.000000 -179.996414 77.651848 -179.992905 420.210846
5 420.210846 -0.000715 0.000000 -179.996689 76.978912 -179.993179 420.210846
6 420.210846 -0.000715 0.000000 -179.997040 76.000107 -179.993515 420.210846
[L_Toe3_02]
4 329.270111 0.000954 0.000000 0.001177 -81.831505 0.001177 329.270111
5 329.270111 0.000954 0.000000 0.001177 -81.815132 0.001177 329.270111
6 329.270111 0.000954 0.000000 0.001177 -81.869476 0.001177 329.270111
[L_Toe3_03]
4 439.137451 -0.001907 0.000954 -179.997833 73.186462 -179.994293 439.137451
5 439.137451 -0.001907 0.000954 -179.997925 72.787086 -179.994400 439.137451
6 439.137451 -0.001907 0.000954 -179.998016 72.387741 -179.994476 439.137451
[planeLockWeightLeft]
4 999.998779 0.098249 0.076138 -0.011826 -0.004376 0.005620 999.998840
5 999.998779 0.098243 0.076146 -0.011826 -0.004376 0.005620 999.998840
6 999.998779 0.098237 0.076155 -0.011826 -0.004376 0.005620 999.998840
[R_Leg01]
4 761.455627 -0.001907 -0.000358 92.139275 2.252275 79.295006 761.455688
5 761.455627 -0.001907 -0.000358 91.041809 11.262508 78.904831 761.455688
6 761.455627 -0.001907 -0.000358 89.990456 19.364353 78.200539 761.455688
[R_Leg02]
4 1441.140625 0.000000 -0.000238 0.192372 -0.004740 -83.693764 1441.140625
5 1441.140625 0.000000 -0.000238 0.201214 0.006897 -78.595345 1441.140625
6 1441.140625 0.000000 -0.000238 0.211054 0.017702 -73.496910 1441.140625
[R_Leg03]
4 1686.963989 0.000954 0.001431 -0.099952 0.011422 83.016068 1686.963989
5 1686.963989 0.000954 0.001431 -0.105505 0.011115 81.131233 1686.963989
6 1686.963989 0.000954 0.001431 -0.111045 0.010626 79.246384 1686.963989
[R_Foot]
4 3041.560059 -30.531288 -11.204481 14.210011 -22.023418 88.774651 3041.734131
5 3041.560059 -30.531288 -11.204481 14.883947 -22.270313 89.200073 3041.734131
6 3041.560059 -30.531288 -11.204481 15.557137 -22.521837 89.623108 3041.734131
[planeAlignerRight]
4 -6.202774 -736.850769 6.290894 0.000000 -89.960434 -90.005180 736.903748
5 -11.180840 -764.996338 9.737778 0.000000 -89.960434 -90.005180 765.140015
6 -16.158909 -793.141907 13.184664 0.000000 -89.960434 -90.005180 793.416077
[R_Toe1_01]
4 -188.383347 -224.864899 21.052242 90.907333 1.577623 -155.402634 294.101532
5 -188.383347 -224.864899 21.052242 90.990051 1.374748 -152.843109 294.101532
6 -188.383347 -224.864899 21.052242 91.063660 1.168279 -150.282791 294.101532
[R_Toe2_01]
4 200.637817 -220.002121 -148.787384 -103.822838 10.290820 -53.635445 332.857574
5 200.637817 -220.002121 -148.787384 -104.121178 9.757188 -55.452671 332.857574
6 200.637817 -220.002121 -148.787384 -104.401779 9.214523 -57.264214 332.857574
[R_Toe3_01]
4 188.606735 -220.092957 191.126343 -71.759781 -13.391883 -55.728481 347.192566
5 188.606735 -220.092957 191.126343 -71.269730 -13.048466 -57.628021 347.192566
6 188.606735 -220.092957 191.126343 -70.792328 -12.689452 -59.521847 347.192566
[planeLockWeightRight]
4 999.999268 -0.000143 0.076144 -0.011823 -0.004379 -0.000027 999.999268
5 999.999268 -0.000191 0.076151 -0.011823 -0.004379 -0.000027 999.999268
6 999.999268 -0.000238 0.076158 -0.011823 -0.004379 -0.000027 999.999268
[R_Toe1_02]
4 413.762085 0.000477 -0.000119 0.001396 -24.380537 0.001396 413.762085
5 413.762085 0.000477 -0.000119 0.001393 -24.870541 0.001393 413.762085
6 413.762085 0.000477 -0.000119 0.001389 -25.360544 0.001389 413.762085
[R_Toe1_03]
4 464.317810 0.000000 0.001088 0.007229 71.312836 0.007229 464.317810
5 464.317810 0.000000 0.001088 0.006050 67.629555 0.006050 464.317810
6 464.317810 0.000000 0.001088 0.005067 63.172619 0.005067 464.317810
[R_Toe2_02]
4 342.234741 -0.000954 0.000238 -0.001463 -73.978012 -0.001463 342.234741
5 342.234741 -0.000954 0.000238 -0.000581 -73.151146 -0.000581 342.234741
6 342.234741 -0.000954 0.000238 0.000303 -72.324318 0.000303 342.234741
[R_Toe2_03]
4 420.210846 0.000715 -0.000268 0.000000 89.870277 -0.003496 420.210846
5 420.210846 0.000715 -0.000268 -0.027569 87.753365 -0.031066 420.210846
6 420.210846 0.000715 -0.000268 0.028149 85.220818 0.028149 420.210846
[R_Toe3_02]
4 329.270355 -0.000477 -0.000954 0.001180 -77.799995 0.001180 329.270355
5 329.270355 -0.000477 -0.000954 0.001181 -76.934563 0.001181 329.270355
6 329.270355 -0.000477 -0.000954 0.001182 -76.069061 0.001182 329.270355
[R_Toe3_03]
4 439.137939 0.000238 0.001431 -179.974716 87.562805 -179.971222 439.137939
5 439.137939 0.000238 0.001431 0.000000 89.909348 0.003496 439.137939
6 439.137939 0.000238 0.001431 -0.025554 87.233101 -0.022056 439.137939
[Rear_Leg02]
4 1162.777710 -0.029802 0.005960 29.457664 -2.248379 -126.199402 1162.777710
5 1162.777710 -0.029802 0.005960 28.239908 1.341450 -134.019608 1162.777710
6 1162.777710 -0.029802 0.005960 26.639067 2.569277 -139.823792 1162.777710
[Rear_Leg03]
4 607.192505 -0.013351 -0.073195 0.009845 -0.006264 81.290527 607.192505
5 607.192505 -0.013351 -0.073195 0.009847 -0.006260 81.244934 607.192505
6 607.192505 -0.013351 -0.073195 0.009850 -0.006256 81.199318 607.192505
[Rear_Leg04]
4 995.874512 -0.020504 -0.011921 -0.043104 -0.012327 113.899429 995.874573
5 995.874512 -0.020504 -0.011921 -0.039374 -0.007760 119.368881 995.874573
6 995.874512 -0.020504 -0.011921 -0.039515 -0.007009 121.551117 995.874573
[Rear_Foot]
4 3096.176270 -0.067472 -0.041425 -61.598370 56.914970 87.740540 3096.176270
5 3096.176270 -0.067472 -0.041425 -58.788681 56.793964 97.636444 3096.176270
6 3096.176270 -0.067472 -0.041425 -53.091267 56.400501 102.640762 3096.176270
[planeAlignerCenter]
4 5.498972 266.606201 -756.302979 0.000009 0.000003 -179.999985 801.937195
5 7.025447 280.932587 -758.401855 0.000009 0.000003 -179.999985 808.792786
6 8.551921 295.258942 -760.500793 0.000009 0.000003 -179.999985 815.850769
[Rear_Toe1_01]
4 0.653352 83.966492 -371.173737 0.093349 39.645370 90.043198 380.553192
5 0.653352 83.966492 -371.173737 0.092915 39.646297 90.044579 380.553192
6 0.653352 83.966492 -371.173737 0.088320 39.772755 90.041924 380.553192
[Rear_Toe2_01]
4 178.200760 -294.826019 -362.060547 98.795357 83.709419 28.190273 499.765686
5 178.200760 -294.826019 -362.060547 111.284927 82.578148 40.694195 499.765686
6 178.200760 -294.826019 -362.060547 118.954422 81.481476 48.348240 499.765686
[Rear_Toe3_01]
4 -153.359680 -308.780914 -362.060852 -96.354187 82.924713 152.047668 499.952881
5 -153.359680 -308.780914 -362.060852 -107.746307 81.803391 140.638657 499.952881
6 -153.359680 -308.780914 -362.060852 -115.006805 80.732903 133.395401 499.952881
[planeLockWeightCenter]
4 0.000229 0.000076 0.076447 -0.011814 -0.004373 -0.000015 0.076447
5 156.250198 0.000000 0.076370 -0.011814 -0.004373 -0.000015 156.250214
6 500.000305 0.000000 0.076294 -0.011814 -0.004373 -0.000015 500.000305
[Rear_Toe1_02]
4 379.707825 0.194073 0.000477 -0.000767 -33.624729 0.000838 379.707855
5 379.707825 0.194073 0.000477 -0.000767 -33.624729 0.000838 379.707855
6 379.707825 0.194073 0.000477 -0.000767 -33.624729 0.000838 379.707855
[Rear_Toe1_03]
4 500.129700 0.165701 0.000119 -0.031445 88.015045 -0.034944 500.129761
5 500.129700 0.165701 0.000119 -0.010567 84.650970 -0.014067 500.129761
6 500.129700 0.165701 0.000119 0.016467 81.826080 0.016467 500.129761
[Rear_Toe2_02]
4 340.494507 0.000238 -0.000954 179.998825 -87.153389 179.998825 340.494507
5 340.494507 0.000238 -0.000954 179.998825 -87.089806 179.998825 340.494507
6 340.494507 0.000238 -0.000954 179.998825 -87.025925 179.998825 340.494507
[Rear_Toe2_03]
4 433.103577 0.000000 0.000238 -179.996307 54.077599 -179.999985 433.103546
5 433.103577 0.000000 0.000238 -179.996323 53.575073 180.000000 433.103546
6 433.103577 0.000000 0.000238 -179.996338 53.469849 180.000000 433.103546
[Rear_Toe3_02]
4 340.494141 -0.000358 -0.000477 -179.994171 -87.201378 -179.994171 340.494171
5 340.494141 -0.000358 -0.000477 -179.994171 -87.139664 -179.994171 340.494171
6 340.494141 -0.000358 -0.000477 -179.994171 -87.078384 -179.994171 340.494171
[Rear_Toe3_03]
4 433.103577 0.001431 -0.000238 179.992493 54.383137 179.999847 433.103546
5 433.103577 0.001431 -0.000238 179.992538 53.907715 179.999893 433.103546
6 433.103577 0.001431 -0.000238 179.992554 53.816223 179.999893 433.103546
[Back_Bone]
4 1312.175781 -701.934692 0.000954 -3.212733 -0.037430 -84.636566 1488.125488
5 1312.175781 -701.934692 0.000954 -3.274355 -0.867710 -84.454651 1488.125488
6 1312.175781 -701.934692 0.000954 -3.338629 -1.697743 -84.271774 1488.125488
[Head]
4 1406.159424 809.709290 0.001431 -2.316394 2.272299 2.077522 1622.625488
5 1406.159424 809.709290 0.001431 -2.712841 2.097458 1.617661 1622.625488
6 1406.159424 809.709290 0.001431 -3.107840 1.919443 1.159057 1622.625488
[Motor_Bone]
4 1158.364380 -417.834747 0.000477 0.251855 -0.541808 -106.527908 1231.419434
5 1158.364380 -417.834747 0.000477 2.270587 -1.149517 -107.133400 1231.419434
6 1158.364380 -417.834747 0.000477 1.114804 -1.132542 -107.122055 1231.419434
[Ping_Mechanism]
4 1226.718384 -438.484497 -7.579593 0.000103 -0.000053 82.120995 1302.752563
5 1204.732178 -424.811981 -9.960441 0.000103 -0.000053 82.120995 1277.475586
6 1188.205322 -410.838593 -10.019111 0.000103 -0.000053 82.120995 1257.267090
[BN_LookIK]
4 193.241119 1380.371704 -0.002861 0.000000 89.965736 -31.038179 1393.832153
5 193.241119 1380.371704 -0.002861 0.000000 89.965736 -31.038179 1393.832153
6 193.241119 1380.371704 -0.002861 0.000000 89.965736 -31.038179 1393.832153
[bottomMouth]
4 -435.092926 615.759399 -0.000954 -0.000022 0.000016 73.527184 753.966492
5 -435.092926 615.759399 -0.000954 -0.000022 0.000016 73.527184 753.966492
6 -435.092926 615.759399 -0.000954 -0.000022 0.000016 73.527184 753.966492
[L_Mouth01]
4 554.440979 7.658243 838.222046 150.204178 23.759130 109.605339 1005.027161
5 554.440979 7.658243 838.222046 150.204178 23.759130 109.605339 1005.027161
6 554.440979 7.658243 838.222046 150.204178 23.759130 109.605339 1005.027161
[L_mouthFront]
4 551.629089 934.514771 339.150421 0.000081 2.804060 79.119301 1136.941284
5 551.629089 934.514771 339.150421 0.000081 2.804060 79.119301 1136.941284
6 551.629089 934.514771 339.150421 0.000081 2.804060 79.119301 1136.941284
[mouthGun]
4 55.332661 1627.420898 0.000000 0.000023 0.000009 -11.038128 1628.361328
5 55.332661 1627.420898 0.000000 0.000023 0.000009 -11.038128 1628.361328
6 55.332661 1627.420898 0.000000 0.000023 0.000009 -11.038128 1628.361328
[R_Mouth01]
4 554.442383 7.659197 -838.223938 29.795891 -23.759109 109.605331 1005.029541
5 554.442383 7.659197 -838.223938 29.795891 -23.759109 109.605331 1005.029541
6 554.442383 7.659197 -838.223938 29.795891 -23.759109 109.605331 1005.029541
[R_mouthFront]
4 551.629089 934.514282 -339.151367 0.000029 -2.803930 79.119133 1136.941162
5 551.629089 934.514282 -339.151367 0.000029 -2.803930 79.119133 1136.941162
6 551.629089 934.514282 -339.151367 0.000029 -2.803930 79.119133 1136.941162
[TopMouth]
4 461.269867 -56.106091 -0.008583 -0.000059 -0.000268 92.025169 464.669525
5 461.269867 -56.106091 -0.008583 -0.000059 -0.000268 92.025169 464.669525
6 461.269867 -56.106091 -0.008583 -0.000059 -0.000268 92.025169 464.669525
[weapon_bone]
4 -987.239868 1448.372803 0.001431 0.000000 89.965736 -31.038221 1752.833740
5 -987.239868 1448.372803 0.001431 0.000000 89.965736 -31.038221 1752.833740
6 -987.239868 1448.372803 0.001431 0.000000 89.965736 -31.038221 1752.833740
